<svg width="1868" height="1083" viewBox="0 0 1868 1083" fill="none" xmlns="http://www.w3.org/2000/svg">
<path fill-rule="evenodd" clip-rule="evenodd" d="M762.316 0H1000.7L1375.22 338.699L993.409 36.6784L230.766 609.038H0L762.316 0Z" fill="#0098FF"/>
<path fill-rule="evenodd" clip-rule="evenodd" d="M1639.62 401.761L1867.92 597.62L1637.38 425.362L1523.93 340.599L1246.4 580.387H1124.47L1416.05 313.902L1520.1 299.241L1639.62 401.761Z" fill="#0069CE"/>
<path fill-rule="evenodd" clip-rule="evenodd" d="M1109.04 82.9346H1244.75L1514.19 300.068L1503.48 301.566L1239.29 110.176L1184.59 151.226L1109.04 82.9346Z" fill="#9FDFFE"/>
<path fill-rule="evenodd" clip-rule="evenodd" d="M946.082 575.918H825.165V454.97H946.082V575.918ZM1090.15 454.97V575.918L969.197 575.885V454.97H1090.15ZM969.197 310.932H1090.15V431.855H969.197V310.932ZM825.165 310.932H946.082V431.855H825.165V310.932Z" fill="#BDBFC1"/>
<path d="M543.489 628.739H573.646C592.179 628.739 611.746 628.573 632.348 628.242L633.092 629.235L625.894 667.583L620.93 668.452L613.236 639.784H555.899V708.041H567.193C575.797 708.041 585.395 707.959 595.985 707.793C598.136 707.71 599.543 706.635 600.205 704.566L604.548 687.812L611.25 687.564C611.002 699.147 610.878 707.71 610.878 713.254C610.878 718.632 611.002 727.071 611.25 738.571L604.548 739.067L600.08 722.065C599.419 719.914 598.136 718.797 596.233 718.714C585.478 718.549 575.756 718.466 567.069 718.466H555.899V763.64C555.899 772.824 555.982 781.883 556.148 790.819H615.718L630.858 759.296L636.443 758.304L633.713 801.492L632.844 802.361C611.415 802.112 591.641 801.988 573.522 801.988H543.985C533.974 801.988 523.715 802.112 513.207 802.361L512.711 797.024L527.976 792.432C530.044 791.853 531.161 790.571 531.327 788.585C531.409 785.276 531.451 781.594 531.451 777.54C531.534 773.403 531.575 768.852 531.575 763.888V663.24C531.575 659.02 531.534 655.214 531.451 651.822C531.451 648.43 531.409 645.369 531.327 642.638C531.244 640.487 530.251 639.081 528.348 638.419L512.959 633.579L512.711 628.242C523.384 628.573 533.643 628.739 543.489 628.739ZM721.082 802.981L665.732 653.311C663.746 647.851 661.884 644.045 660.147 641.894C658.492 639.66 655.969 638.046 652.577 637.054L641.283 633.579L641.035 628.242C649.226 628.573 658.823 628.739 669.827 628.739C680.997 628.739 692.538 628.573 704.452 628.242L704.949 633.579L693.283 636.93C691.628 637.343 690.428 637.964 689.684 638.791C688.939 639.536 688.567 640.653 688.567 642.142C688.567 643.797 688.981 646.031 689.808 648.844C690.718 651.574 691.959 655.131 693.531 659.517L733.617 771.21L777.177 659.641C778.915 655.09 780.28 651.45 781.273 648.719C782.266 645.906 782.762 643.673 782.762 642.018C782.762 640.529 782.348 639.453 781.521 638.791C780.776 638.046 779.618 637.467 778.046 637.054L766.504 633.951L766.256 628.242C775.274 628.573 784.375 628.739 793.559 628.739C802.743 628.739 811.554 628.573 819.993 628.242L820.49 633.579L807.955 637.55C805.059 638.377 802.867 639.784 801.378 641.77C799.888 643.673 797.903 647.52 795.421 653.311L733.493 801.988L721.082 802.981ZM869.139 763.888C869.139 768.852 869.139 773.32 869.139 777.292C869.221 781.263 869.304 784.862 869.387 788.089C869.47 790.653 870.545 792.267 872.614 792.929L886.389 797.024L886.761 802.361C876.916 802.112 867.07 801.988 857.225 801.988C847.214 801.988 836.954 802.112 826.447 802.361L825.95 797.024L841.215 792.432C843.284 791.853 844.401 790.571 844.566 788.585C844.649 785.276 844.69 781.594 844.69 777.54C844.773 773.403 844.814 768.852 844.814 763.888V663.24C844.814 659.02 844.773 655.214 844.69 651.822C844.69 648.43 844.649 645.369 844.566 642.638C844.483 640.487 843.49 639.081 841.588 638.419L826.199 633.579L825.95 628.242C836.623 628.573 847.007 628.739 857.101 628.739C859.086 628.739 861.61 628.697 864.671 628.615C867.732 628.449 871.455 628.284 875.84 628.118C880.308 627.953 884.031 627.829 887.01 627.746C889.988 627.663 892.346 627.622 894.084 627.622C912.948 627.622 927.095 631.179 936.527 638.295C945.959 645.41 950.675 655.793 950.675 669.445C950.675 681.773 947.449 691.784 940.995 699.478C934.542 707.09 924.696 712.964 911.458 717.101C916.671 725.044 921.469 732.738 925.854 740.184C930.239 747.548 934.293 754.332 938.017 760.537C941.822 766.66 945.297 772.079 948.441 776.795C951.585 781.511 954.522 785.234 957.253 787.964C958.659 789.371 960.066 790.612 961.472 791.688C962.879 792.68 964.327 793.508 965.816 794.17C967.388 794.832 969.001 795.411 970.656 795.907C972.393 796.404 974.296 796.9 976.365 797.396L976.737 802.857C970.78 803.602 965.775 803.974 961.721 803.974C958.328 803.974 955.35 803.891 952.785 803.726C950.22 803.56 947.945 803.229 945.959 802.733C943.974 802.236 942.153 801.616 940.499 800.871C938.927 800.044 937.355 799.01 935.783 797.769C932.391 795.204 929.04 791.522 925.73 786.723C922.504 781.842 919.111 776.34 915.554 770.218C912.079 764.095 908.438 757.6 904.633 750.733C900.827 743.783 896.814 736.999 892.594 730.38C891.353 728.394 890.278 726.822 889.368 725.664C888.54 724.506 887.589 723.596 886.513 722.934C885.52 722.272 884.321 721.817 882.914 721.569C881.59 721.32 879.853 721.155 877.702 721.072L869.139 720.824V763.888ZM869.139 711.516C874.186 711.764 878.86 711.889 883.162 711.889C897.476 711.889 907.942 708.869 914.561 702.829C921.262 696.706 924.613 687.15 924.613 674.161C924.613 661.585 921.428 652.401 915.057 646.61C908.687 640.818 898.717 637.922 885.148 637.922C882.832 637.922 880.349 638.005 877.702 638.171C875.054 638.336 872.2 638.584 869.139 638.915V711.516ZM1006.52 713.005C1006.52 739.977 1011.98 760.662 1022.9 775.058C1033.83 789.371 1049.83 796.528 1070.93 796.528C1091.7 796.528 1107.01 790.033 1116.85 777.043C1126.78 763.971 1131.74 743.494 1131.74 715.612C1131.74 689.467 1126.49 669.362 1115.98 655.297C1105.47 641.232 1089.26 634.199 1067.33 634.199C1046.07 634.199 1030.6 640.735 1020.92 653.808C1011.32 666.797 1006.52 686.53 1006.52 713.005ZM1159.05 711.392C1159.05 740.019 1150.9 763.061 1134.6 780.518C1118.38 797.893 1095.67 806.58 1066.46 806.58C1038.75 806.58 1017.28 798.555 1002.05 782.504C986.914 766.37 979.343 744.569 979.343 717.101C979.343 688.474 987.493 665.846 1003.79 649.216C1020.17 632.503 1042.84 624.147 1071.8 624.147C1099.6 624.147 1121.07 631.965 1136.21 647.602C1151.43 663.157 1159.05 684.42 1159.05 711.392Z" fill="#0098FF"/>
<path d="M989.426 905.254C997.203 905.585 1004.24 905.75 1010.52 905.75C1016.65 905.75 1024.88 905.585 1035.22 905.254L1035.72 910.59L1020.08 915.43C1018.18 916.092 1017.18 917.499 1017.1 919.65C1016.94 925.111 1016.85 931.978 1016.85 940.251V1040.9C1016.85 1050.66 1016.94 1058.9 1017.1 1065.6C1017.18 1067.5 1018.34 1068.78 1020.58 1069.44L1035.47 1074.04L1035.72 1079.37C1024.8 1079.12 1014.37 1079 1004.44 1079C994.68 1079 985.041 1079.12 975.526 1079.37L975.03 1074.04L989.302 1069.69C991.287 1069.11 992.322 1067.67 992.404 1065.35C992.57 1058.81 992.653 1050.66 992.653 1040.9V933.426L931.097 1079L922.037 1079.99L860.109 933.426V1040.9C860.109 1050.66 860.192 1058.81 860.357 1065.35C860.44 1067.67 861.516 1069.11 863.584 1069.69L877.484 1074.04L877.732 1079.37C867.886 1079.12 859.654 1079 853.035 1079C846.582 1079 838.019 1079.12 827.346 1079.37L826.849 1074.04L842.114 1069.44C844.265 1068.78 845.382 1067.5 845.465 1065.6C845.63 1058.9 845.713 1050.66 845.713 1040.9V940.251C845.713 931.978 845.63 925.111 845.465 919.65C845.382 917.499 844.389 916.092 842.486 915.43L827.097 910.59L826.849 905.254C837.522 905.585 845.961 905.75 852.167 905.75C859.282 905.75 866.687 905.585 874.381 905.254L931.966 1041.4L989.426 905.254ZM1142.2 916.547C1133.51 913.652 1125.53 912.204 1118.25 912.204C1107.33 912.204 1098.6 914.851 1092.06 920.146C1085.61 925.442 1082.38 932.805 1082.38 942.237C1082.38 947.615 1083.5 952.331 1085.73 956.385C1088.05 960.439 1091.11 963.997 1094.91 967.058C1098.8 970.119 1103.19 972.849 1108.07 975.249C1112.95 977.648 1118 980.006 1123.21 982.323C1128.92 984.805 1134.46 987.452 1139.84 990.265C1145.22 992.996 1150.06 996.222 1154.36 999.946C1158.75 1003.67 1162.22 1008.14 1164.79 1013.35C1167.43 1018.56 1168.76 1024.64 1168.76 1031.59C1168.76 1048.06 1162.97 1060.63 1151.38 1069.32C1139.88 1078.01 1123.91 1082.35 1103.48 1082.35C1090.32 1082.35 1075.76 1080.12 1059.79 1075.65L1059.05 1074.66L1065.13 1032.46L1070.71 1031.59L1079.4 1066.84C1088.17 1070.31 1097.15 1072.05 1106.33 1072.05C1118.66 1072.05 1128.26 1069.32 1135.12 1063.86C1142.07 1058.4 1145.55 1050.62 1145.55 1040.53C1145.55 1035.23 1144.43 1030.6 1142.2 1026.63C1139.96 1022.57 1136.94 1019.1 1133.14 1016.2C1129.42 1013.31 1125.15 1010.7 1120.36 1008.38C1115.56 1005.99 1110.59 1003.63 1105.46 1001.31C1099.67 998.829 1094.05 996.14 1088.59 993.244C1083.12 990.348 1078.16 986.997 1073.69 983.191C1069.31 979.303 1065.79 974.587 1063.14 969.044C1060.5 963.418 1059.17 956.881 1059.17 949.435C1059.17 934.46 1064.76 922.877 1075.93 914.686C1087.18 906.495 1102.07 902.4 1120.6 902.4C1133.68 902.4 1147.37 903.93 1161.68 906.991L1162.55 907.86L1155.23 946.581L1150.27 947.449L1142.2 916.547ZM1220.88 1079C1210.87 1079 1200.61 1079.12 1190.1 1079.37L1189.61 1074.04L1204.87 1069.44C1207.02 1068.78 1208.14 1067.5 1208.22 1065.6C1208.3 1062.29 1208.35 1058.61 1208.35 1054.55C1208.43 1050.41 1208.47 1045.86 1208.47 1040.9V940.251C1208.47 936.032 1208.43 932.226 1208.35 928.834C1208.35 925.442 1208.3 922.38 1208.22 919.65C1208.14 917.499 1207.15 916.092 1205.24 915.43L1189.85 910.59L1189.61 905.254C1200.28 905.585 1210.66 905.75 1220.76 905.75C1229.03 905.75 1237.01 905.544 1244.71 905.13C1252.4 904.716 1260.3 904.509 1268.41 904.509C1297.37 904.509 1319.13 911.128 1333.69 924.366C1348.25 937.521 1355.53 957.088 1355.53 983.067C1355.53 1013.68 1347.43 1037.47 1331.21 1054.43C1315.08 1071.31 1292.41 1079.74 1263.2 1079.74C1255.17 1079.74 1248.02 1079.62 1241.73 1079.37C1235.44 1079.12 1228.49 1079 1220.88 1079ZM1232.79 1067.95C1237.68 1068.62 1242.43 1069.07 1247.07 1069.32C1251.78 1069.49 1256.5 1069.57 1261.21 1069.57C1283.06 1069.57 1299.69 1063.16 1311.1 1050.33C1322.52 1037.43 1328.23 1017.69 1328.23 991.134C1328.23 965.32 1322.81 946.208 1311.97 933.798C1301.13 921.305 1283.97 915.058 1260.47 915.058C1256.75 915.058 1252.61 915.141 1248.06 915.306C1243.59 915.472 1238.5 915.761 1232.79 916.175V1067.95Z" fill="#ED3237"/>
</svg>
